<?xml version="1.0" standalone="no"?>
<!DOCTYPE svg PUBLIC "-//W3C//DTD SVG 20010904//EN"
 "http://www.w3.org/TR/2001/REC-SVG-20010904/DTD/svg10.dtd">
<svg version="1.0" xmlns="http://www.w3.org/2000/svg"
 width="3125.000000pt" height="1875.000000pt" viewBox="0 0 3125.000000 1875.000000"
 preserveAspectRatio="xMidYMid meet">

<g transform="translate(0.000000,1875.000000) scale(0.100000,-0.100000)"
fill="#000000" stroke="none">
<path d="M0 9375 l0 -9375 15625 0 15625 0 0 9375 0 9375 -15625 0 -15625 0 0
-9375z m14808 2976 c208 -32 449 -106 521 -161 l24 -17 -22 -199 c-12 -110
-27 -238 -33 -286 l-10 -87 -71 35 c-142 72 -378 138 -587 164 -123 15 -363
13 -462 -5 -427 -74 -757 -378 -877 -807 -35 -125 -51 -262 -51 -445 0 -453
107 -778 324 -980 89 -83 159 -126 276 -169 135 -51 253 -67 450 -60 149 5
224 15 343 47 l37 10 0 349 0 350 -270 0 -270 0 0 285 0 285 605 0 605 0 0
-853 0 -854 -25 -11 c-56 -26 -265 -83 -403 -111 -250 -51 -406 -65 -702 -65
-292 1 -392 13 -595 72 -565 166 -929 573 -1050 1176 -38 189 -48 325 -42 559
13 541 168 943 491 1275 275 283 649 461 1086 517 163 20 530 13 708 -14z
m5320 18 c218 -23 394 -74 587 -168 159 -78 277 -163 410 -296 132 -131 223
-257 305 -420 139 -277 201 -560 201 -915 0 -190 -10 -296 -42 -454 -136 -674
-608 -1168 -1249 -1310 -673 -148 -1338 66 -1732 558 -259 323 -387 721 -388
1201 0 266 28 456 100 677 185 563 623 966 1190 1092 201 44 420 57 618 35z
m3227 -33 c321 -51 553 -154 715 -315 168 -168 241 -350 242 -601 1 -373 -201
-640 -585 -771 -94 -33 -106 -39 -81 -44 269 -58 471 -194 587 -395 123 -213
133 -566 22 -815 -59 -133 -195 -291 -330 -382 -187 -126 -460 -214 -749 -242
-251 -25 -809 2 -1043 50 l-53 10 0 1740 c0 1716 0 1739 19 1739 11 0 93 7
183 15 395 37 878 42 1073 11z m-6745 -1481 l0 -1455 735 0 735 0 0 -285 0
-285 -1070 0 -1070 0 0 1740 0 1740 335 0 335 0 0 -1455z m10511 -280 c324
-951 589 -1733 589 -1737 0 -5 -165 -8 -367 -8 l-368 0 -156 518 -156 517
-542 0 -543 0 -156 -517 -156 -518 -358 0 c-197 0 -358 2 -358 4 0 5 1118
3294 1157 3404 l26 72 399 -2 400 -3 589 -1730z m1619 280 l0 -1455 735 0 735
0 0 -285 0 -285 -1070 0 -1070 0 0 1740 0 1740 335 0 335 0 0 -1455z m-20560
197 l2075 -1198 3 -485 2 -485 -2086 -1204 c-1147 -663 -2090 -1207 -2095
-1208 -5 -2 -8 194 -7 479 l3 482 1672 966 c1274 735 1670 968 1660 977 -6 6
-760 442 -1674 970 l-1663 959 0 483 c0 457 1 482 18 473 9 -6 951 -549 2092
-1209z m-2950 -1688 l0 -2895 -58 33 c-32 18 -219 125 -415 238 l-356 205 -1
1933 c0 1375 -3 1932 -11 1932 -9 0 -1148 -655 -2872 -1652 -246 -142 -454
-261 -462 -265 -13 -5 -15 55 -13 476 l3 482 2085 1204 c1147 662 2088 1204
2093 1205 4 0 7 -1303 7 -2896z m1671 491 c453 -261 826 -478 831 -483 4 -4
-362 -221 -814 -482 -451 -261 -827 -479 -835 -483 -11 -7 -13 151 -13 958 0
531 2 965 4 965 3 0 375 -214 827 -475z m-3341 -1455 c0 -528 -3 -960 -7 -960
-10 0 -1662 954 -1663 960 0 6 1652 960 1663 960 4 0 7 -432 7 -960z m19525
-190 c111 -13 192 -33 268 -68 l59 -26 -6 -40 c-3 -23 -11 -89 -17 -148 l-12
-107 -36 18 c-20 10 -72 30 -116 44 -439 138 -803 -37 -881 -423 -20 -100 -15
-278 11 -375 42 -163 146 -306 271 -372 100 -53 170 -66 324 -60 146 5 229 24
345 76 l63 29 6 -57 c3 -31 9 -97 12 -147 l7 -92 -79 -30 c-148 -56 -218 -67
-439 -67 -177 0 -210 3 -284 23 -212 58 -369 169 -479 341 -148 228 -183 615
-83 904 71 204 212 366 409 470 188 99 409 135 657 107z m2085 0 c108 -14 200
-36 268 -66 48 -21 52 -25 52 -57 0 -32 -14 -161 -26 -234 l-5 -33 -51 26
c-123 63 -374 99 -513 75 -183 -32 -336 -143 -414 -299 -91 -181 -84 -487 15
-684 45 -90 145 -192 226 -231 102 -49 168 -60 318 -54 143 5 245 29 353 83
56 29 53 33 62 -91 3 -49 8 -110 11 -136 l6 -45 -68 -27 c-159 -61 -291 -81
-502 -74 -186 5 -273 25 -407 91 -238 118 -378 316 -430 609 -24 135 -17 376
15 492 45 167 122 297 243 411 205 196 514 284 847 244z m1587 -19 c367 -91
601 -382 643 -799 45 -442 -174 -838 -541 -976 -150 -56 -367 -73 -527 -40
-363 74 -616 354 -672 743 -17 116 -8 343 18 442 43 161 110 286 215 396 124
130 279 213 466 248 102 19 289 13 398 -14z m-13530 8 c288 -32 529 -150 659
-323 65 -86 112 -184 141 -295 22 -83 26 -118 26 -256 1 -133 -3 -175 -21
-249 -54 -215 -183 -406 -356 -526 -118 -81 -296 -149 -459 -175 -144 -23
-541 -17 -669 11 l-28 6 0 888 c0 838 1 889 18 894 15 5 189 21 312 29 111 8
289 6 377 -4z m15053 1 c280 -34 451 -158 505 -365 19 -76 19 -165 -1 -240
-37 -142 -134 -239 -292 -291 l-64 -20 39 -12 c59 -17 116 -73 157 -152 28
-53 53 -130 96 -303 49 -195 94 -354 117 -414 4 -10 -31 -13 -180 -13 l-185 0
-11 33 c-17 54 -48 184 -86 355 -35 163 -57 223 -91 253 -46 40 -88 52 -196
57 l-108 5 0 -352 0 -351 -170 0 -170 0 0 894 0 894 67 8 c219 23 449 29 573
14z m1489 -20 c218 -53 361 -182 416 -373 10 -36 16 -93 16 -155 0 -171 -40
-271 -156 -388 -131 -133 -305 -197 -537 -198 l-128 -1 0 -337 0 -338 -170 0
-170 0 0 889 0 889 23 6 c22 5 165 22 257 30 115 10 366 -3 449 -24z m-15035
-362 c94 -197 173 -358 176 -358 3 0 84 162 180 360 l175 360 199 0 198 0 -14
-22 c-8 -13 -142 -244 -296 -515 l-282 -492 0 -380 0 -381 -170 0 -170 0 0
380 0 380 -291 507 c-160 280 -293 511 -296 516 -2 4 91 6 208 5 l213 -3 170
-357z m1791 -130 c287 -619 302 -654 360 -816 26 -73 48 -131 49 -130 1 2 -1
75 -5 163 -4 88 -7 411 -8 718 l-1 557 165 0 165 0 0 -895 0 -895 -252 0 -253
0 -250 541 c-272 589 -266 577 -334 760 l-46 126 3 -714 4 -713 -166 0 -166 0
0 895 0 895 253 0 254 0 228 -492z m2200 -403 l303 -890 -186 -3 c-101 -1
-187 -1 -189 2 -4 3 -50 156 -144 469 l-20 67 -279 0 -279 0 -30 -97 c-16 -54
-53 -176 -82 -270 l-52 -173 -185 0 c-171 0 -184 1 -177 18 3 9 137 402 297
872 160 470 295 865 299 878 l9 22 206 -2 206 -3 303 -890z m1064 623 c265
-867 311 -1022 329 -1108 14 -67 21 -88 25 -70 32 147 81 318 227 795 94 308
178 581 186 608 l16 47 244 0 244 0 0 -112 c0 -62 7 -408 15 -768 8 -360 15
-712 15 -782 l0 -128 -169 0 -169 0 -7 133 c-7 136 1 1232 10 1322 2 28 -4 10
-15 -43 -52 -251 -113 -460 -263 -902 l-162 -475 -181 -3 -181 -2 -167 477
c-180 516 -201 583 -246 802 -17 80 -33 147 -37 150 -3 4 -3 -5 0 -19 20 -80
29 -478 22 -942 l-7 -498 -170 0 -169 0 6 143 c3 78 10 390 15 692 5 303 13
641 16 753 l6 202 242 0 242 0 83 -272z m1921 -623 l0 -895 -170 0 -170 0 0
895 0 895 170 0 170 0 0 -895z"/>
<path d="M19720 11795 c-298 -67 -499 -225 -635 -500 -88 -177 -132 -361 -144
-597 -28 -560 121 -975 430 -1203 74 -54 164 -98 275 -131 82 -25 103 -28 269
-28 146 -1 194 3 255 18 268 68 465 229 591 479 206 408 207 1064 1 1472 -124
247 -313 405 -568 476 -103 28 -374 36 -474 14z"/>
<path d="M22763 11783 c-10 -4 -13 -110 -13 -485 l0 -480 178 4 c206 6 290 22
408 78 109 53 175 113 219 203 57 118 67 239 28 362 -49 157 -187 271 -372
311 -64 13 -419 19 -448 7z"/>
<path d="M22750 9811 c0 -418 2 -470 16 -475 35 -13 365 -6 442 10 101 20 224
79 288 137 208 188 157 572 -94 705 -123 65 -278 92 -529 92 l-123 0 0 -469z"/>
<path d="M25934 11047 l-181 -602 184 -3 c100 -1 266 -1 367 0 l184 3 -181
603 c-100 331 -184 602 -187 602 -3 0 -86 -271 -186 -603z"/>
<path d="M26390 7912 c-213 -56 -345 -244 -369 -525 -31 -368 101 -641 347
-717 77 -24 221 -27 298 -6 122 32 240 133 295 251 56 118 72 204 72 375 0
175 -17 259 -75 377 -102 206 -333 306 -568 245z"/>
<path d="M12920 7911 l-55 -6 0 -625 0 -625 165 0 c145 0 173 3 235 24 227 75
369 234 411 461 19 98 14 271 -9 357 -88 316 -342 457 -747 414z"/>
<path d="M28007 7913 l-27 -4 2 -272 3 -272 90 3 c157 4 262 52 319 145 38 62
48 173 21 243 -42 110 -122 156 -280 160 -55 1 -112 0 -128 -3z"/>
<path d="M29402 7913 l-22 -4 2 -277 3 -277 94 -3 c229 -7 354 93 355 284 1
134 -77 234 -209 269 -55 14 -170 18 -223 8z"/>
<path d="M18115 7543 c-49 -164 -90 -304 -93 -310 -3 -10 39 -13 188 -13 150
0 191 3 188 13 -3 6 -45 146 -94 310 -49 163 -91 297 -94 297 -4 0 -46 -134
-95 -297z"/>
</g>
</svg>
